<?xml version="1.0" encoding="iso-8859-1"?>
<!-- Generator: Adobe Illustrator 19.0.0, SVG Export Plug-In . SVG Version: 6.00 Build 0)  -->
<svg version="1.1" id="Capa_1" xmlns="http://www.w3.org/2000/svg" xmlns:xlink="http://www.w3.org/1999/xlink" x="0px" y="0px"
	 viewBox="0 0 479.994 479.994" style="enable-background:new 0 0 479.994 479.994;" xml:space="preserve" fill="white">
<g>
	<g>
		<path d="M399.997,0h-320c-4.418,0-8,3.582-8,8v408c0,4.418,3.582,8,8,8h12.688l-2.344,2.344c-2.463,2.458-3.055,6.226-1.464,9.32
			c1.616,3.069,5.007,4.767,8.432,4.224l36.952-6.152l-6.152,36.952c-0.721,4.359,2.228,8.477,6.587,9.198
			c2.543,0.421,5.133-0.41,6.957-2.23L195.309,424h89.376l53.656,53.656c3.127,3.121,8.193,3.116,11.314-0.011
			c1.821-1.824,2.651-4.414,2.23-6.957l-6.152-36.952l36.952,6.152c4.359,0.721,8.477-2.228,9.198-6.587
			c0.421-2.543-0.41-5.133-2.23-6.957L387.309,424h12.688c4.418,0,8-3.582,8-8V8C407.997,3.582,404.415,0,399.997,0z
			 M147.997,448.688l3.896-23.376c0.422-2.548-0.412-5.143-2.24-6.968c-1.826-1.825-4.421-2.656-6.968-2.232l-23.376,3.896
			l58.688-58.696l20.8,7.872l7.872,20.8L147.997,448.688z M211.309,408l9.784-9.784l18.904-12.616l18.904,12.6l9.784,9.8H211.309z
			 M267.557,360.176l-7.424,19.616l-15.64-10.4c-2.688-1.794-6.192-1.794-8.88,0l-15.64,10.4l-7.416-19.616
			c-0.814-2.145-2.509-3.838-4.656-4.648l-19.616-7.424l10.4-15.64c1.795-2.7,1.782-6.217-0.032-8.904l-10.4-15.64l19.616-7.416
			c2.351-0.891,4.146-2.834,4.848-5.248l5.6-19.04l17.6,10.632c2.654,1.604,5.996,1.529,8.576-0.192l15.64-10.4l7.424,19.616
			c0.81,2.147,2.503,3.842,4.648,4.656l19.616,7.416l-10.4,15.64c-1.794,2.688-1.794,6.192,0,8.88l10.4,15.64l-19.616,7.424
			C270.061,356.34,268.369,358.032,267.557,360.176z M337.309,416.112c-4.359-0.722-8.478,2.226-9.2,6.585
			c-0.143,0.866-0.143,1.749,0,2.615l3.896,23.376L273.309,390l7.872-20.8l20.8-7.872L360.685,420L337.309,416.112z M391.997,408
			h-20.688l-61.096-61.096L297.597,328l13.04-19.56c2.455-3.674,1.466-8.642-2.207-11.096c-0.506-0.338-1.048-0.617-1.617-0.832
			l-25.648-9.696l-9.696-25.648c-1.562-4.133-6.178-6.218-10.311-4.656c-0.569,0.215-1.111,0.494-1.617,0.832l-19.768,13.176
			l-22.176-13.368c-3.784-2.28-8.701-1.061-10.981,2.723c-0.356,0.59-0.634,1.224-0.827,1.885l-7.36,25.184l-25.288,9.6
			c-4.133,1.562-6.218,6.178-4.656,10.311c0.215,0.569,0.494,1.111,0.832,1.617L182.397,328l-12.6,18.904L108.685,408H87.997V16h304
			V408z"/>
	</g>
</g>
<g>
	<g>
		<path d="M367.997,32h-256c-4.418,0-8,3.582-8,8v336c0,4.418,3.582,8,8,8h8c4.418,0,8-3.582,8-8s-3.582-8-8-8V48h240v320
			c-4.418,0-8,3.582-8,8s3.582,8,8,8h8c4.418,0,8-3.582,8-8V40C375.997,35.582,372.415,32,367.997,32z"/>
	</g>
</g>
<g>
	<g>
		<path d="M239.997,64c-17.673,0-32,14.327-32,32s14.327,32,32,32c17.673,0,32-14.327,32-32S257.67,64,239.997,64z M239.997,112
			c-8.837,0-16-7.163-16-16s7.163-16,16-16s16,7.163,16,16S248.833,112,239.997,112z"/>
	</g>
</g>
<g>
	<g>
		<path d="M319.997,144h-160c-4.418,0-8,3.582-8,8s3.582,8,8,8h160c4.418,0,8-3.582,8-8S324.415,144,319.997,144z"/>
	</g>
</g>
<g>
	<g>
		<path d="M319.997,176h-160c-4.418,0-8,3.582-8,8s3.582,8,8,8h160c4.418,0,8-3.582,8-8S324.415,176,319.997,176z"/>
	</g>
</g>
<g>
	<g>
		<path d="M319.997,208h-160c-4.418,0-8,3.582-8,8s3.582,8,8,8h160c4.418,0,8-3.582,8-8S324.415,208,319.997,208z"/>
	</g>
</g>
<g>
	<g>
		<path d="M319.997,240h-32c-4.418,0-8,3.582-8,8s3.582,8,8,8h32c4.418,0,8-3.582,8-8S324.415,240,319.997,240z"/>
	</g>
</g>
<g>
	<g>
		<path d="M191.997,240h-32c-4.418,0-8,3.582-8,8s3.582,8,8,8h32c4.418,0,8-3.582,8-8S196.415,240,191.997,240z"/>
	</g>
</g>
<g>
	<g>
		<path d="M260.213,337.2c-3.755-2.328-8.688-1.172-11.016,2.584c-1.784,2.69-4.821,4.28-8.048,4.216
			c-4.728,0.293-8.81-3.275-9.152-8v-16c0.342-4.725,4.424-8.293,9.152-8c3.227-0.064,6.263,1.526,8.048,4.216
			c2.328,3.755,7.261,4.912,11.016,2.584c3.756-2.328,4.912-7.26,2.584-11.016c-4.718-7.38-12.889-11.827-21.648-11.784
			c-13.564-0.295-24.811,10.437-25.152,24v16c0.341,13.563,11.588,24.295,25.152,24c8.759,0.043,16.93-4.404,21.648-11.784
			C265.125,344.46,263.968,339.528,260.213,337.2z"/>
	</g>
</g>
<g>
</g>
<g>
</g>
<g>
</g>
<g>
</g>
<g>
</g>
<g>
</g>
<g>
</g>
<g>
</g>
<g>
</g>
<g>
</g>
<g>
</g>
<g>
</g>
<g>
</g>
<g>
</g>
<g>
</g>
</svg>
